<!DOCTYPE svg PUBLIC "-//W3C//DTD SVG 1.1//EN" "http://www.w3.org/Graphics/SVG/1.1/DTD/svg11.dtd">
<!-- Uploaded to: SVG Repo, www.svgrepo.com, Transformed by: SVG Repo Mixer Tools -->
<svg width="85px" height="85px" viewBox="-2.64 -2.64 29.28 29.28" fill="none" xmlns="http://www.w3.org/2000/svg">
<g id="SVGRepo_bgCarrier" stroke-width="0">
<rect x="-2.64" y="-2.64" width="29.28" height="29.28" rx="0" fill="#ffffff" strokewidth="0"/>
</g>
<g id="SVGRepo_tracerCarrier" stroke-linecap="round" stroke-linejoin="round"/>
<g id="SVGRepo_iconCarrier"> <path d="M21 12C21 16.9706 16.9706 21 12 21C7.02944 21 3 16.9706 3 12C3 7.02944 7.02944 3 12 3C16.9706 3 21 7.02944 21 12Z" stroke="#000000" stroke-width="1.464"/> <path d="M10.5 8.67709C10.8665 8.26188 11.4027 8 12 8C13.1046 8 14 8.89543 14 10C14 10.9337 13.3601 11.718 12.4949 11.9383C12.2273 12.0064 12 12.2239 12 12.5V12.5V13" stroke="#000000" stroke-width="1.464" stroke-linecap="round" stroke-linejoin="round"/> <path d="M12 16H12.01" stroke="#000000" stroke-width="1.464" stroke-linecap="round" stroke-linejoin="round"/> </g>
</svg>