<!DOCTYPE svg PUBLIC "-//W3C//DTD SVG 1.1//EN" "http://www.w3.org/Graphics/SVG/1.1/DTD/svg11.dtd">
<!-- Uploaded to: SVG Repo, www.svgrepo.com, Transformed by: SVG Repo Mixer Tools -->
<svg width="85px" height="85px" viewBox="-2.64 -2.64 29.28 29.28" fill="none" xmlns="http://www.w3.org/2000/svg">
<g id="SVGRepo_bgCarrier" stroke-width="0" transform="translate(0,0), scale(1)">
<rect x="-2.64" y="-2.64" width="29.28" height="29.28" rx="0" fill="#ffffff" strokewidth="0"/>
</g>
<g id="SVGRepo_tracerCarrier" stroke-linecap="round" stroke-linejoin="round"/>
<g id="SVGRepo_iconCarrier"> <path d="M10.5213 3.62368C11.3147 2.75255 12.6853 2.75255 13.4787 3.62368L14.2142 4.43128C14.6151 4.87154 15.1914 5.11025 15.7862 5.08245L16.8774 5.03146C18.0543 4.97645 19.0236 5.94568 18.9685 7.12264L18.9176 8.21377C18.8898 8.80859 19.1285 9.38487 19.5687 9.78582L20.3763 10.5213C21.2475 11.3147 21.2475 12.6853 20.3763 13.4787L19.5687 14.2142C19.1285 14.6151 18.8898 15.1914 18.9176 15.7862L18.9685 16.8774C19.0236 18.0543 18.0543 19.0236 16.8774 18.9685L15.7862 18.9176C15.1914 18.8898 14.6151 19.1285 14.2142 19.5687L13.4787 20.3763C12.6853 21.2475 11.3147 21.2475 10.5213 20.3763L9.78582 19.5687C9.38487 19.1285 8.80859 18.8898 8.21376 18.9176L7.12264 18.9685C5.94568 19.0236 4.97645 18.0543 5.03146 16.8774L5.08245 15.7862C5.11025 15.1914 4.87154 14.6151 4.43128 14.2142L3.62368 13.4787C2.75255 12.6853 2.75255 11.3147 3.62368 10.5213L4.43128 9.78582C4.87154 9.38487 5.11025 8.80859 5.08245 8.21376L5.03146 7.12264C4.97645 5.94568 5.94568 4.97645 7.12264 5.03146L8.21376 5.08245C8.80859 5.11025 9.38487 4.87154 9.78583 4.43128L10.5213 3.62368Z" stroke="#000000" stroke-width="1.224"/> <circle cx="12" cy="12" r="3" stroke="#000000" stroke-width="1.224"/> </g>
</svg>